# xmcd CD database file
#
# Track frame offsets:
#	150
#	26235
#	48038
#	72079
#	109775
#	134170
#	154155
#	179258
#
# Disc length: 2765 seconds
#
# Revision: 0
# Processed by: cddbd v1.5.2PL0 Copyright (c) Steve Scherf et al.
# Submitted via: CDex 1.77
#
DISCID=6c0acb08
DTITLE=Aaron Goldberg - At the Edge of the World
DYEAR=2016
DGENRE=Jazz
TTITLE0=Poinciana
TTITLE1=Luaty
TTITLE2=Isn't This My Sound Around Me
TTITLE3=When You Are Near
TTITLE4=Effendi
TTITLE5=En La Orilla Del Mundo
TTITLE6=Black Orpheus (Manha de Carnaval)
TTITLE7=Tokyo Dream
EXTD=YEAR: 2016
EXTT0=
EXTT1=
EXTT2=
EXTT3=
EXTT4=
EXTT5=
EXTT6=
EXTT7=
PLAYORDER=
